<svg xmlns="http://www.w3.org/2000/svg" viewBox="0 0 64 64" width="64" height="64" role="img" aria-label="nosana-x402-gateway icon">
  <rect width="64" height="64" rx="14" fill="#0f172a"/>
  <!-- GPU chip: the compute the payment buys -->
  <rect x="15" y="19" width="27" height="27" rx="5" fill="none" stroke="#10b981" stroke-width="3"/>
  <rect x="24" y="28" width="9" height="9" rx="2" fill="#10b981"/>
  <g fill="#10b981">
    <rect x="20" y="13" width="3" height="6" rx="1.5"/>
    <rect x="27" y="13" width="3" height="6" rx="1.5"/>
    <rect x="34" y="13" width="3" height="6" rx="1.5"/>
    <rect x="20" y="46" width="3" height="6" rx="1.5"/>
    <rect x="27" y="46" width="3" height="6" rx="1.5"/>
    <rect x="34" y="46" width="3" height="6" rx="1.5"/>
    <rect x="9" y="24" width="6" height="3" rx="1.5"/>
    <rect x="9" y="31" width="6" height="3" rx="1.5"/>
    <rect x="9" y="38" width="6" height="3" rx="1.5"/>
  </g>
  <!-- USDC payment coin overlapping the chip corner -->
  <circle cx="46" cy="20" r="11" fill="#9945FF" stroke="#0f172a" stroke-width="3"/>
  <circle cx="46" cy="20" r="4.5" fill="none" stroke="#ffffff" stroke-width="2"/>
</svg>
